{"title":"The Signal 2007 DVDRip Xvid AC3 LKRG","uid":10371057,"size":1026375511,"categoryP":"video","categoryS":"movies","magnet":"?xt=urn:btih:cd6c8884cc1fe3cd80fee4a80016b48ade1b81dd&amp;dn=The+Signal+2007+DVDRip+Xvid+AC3+LKRG&amp;tr=udp%3A%2F%2Ftracker.openbittorrent.com%3A80&amp;tr=udp%3A%2F%2Fopen.demonii.com%3A1337&amp;tr=udp%3A%2F%2Ftracker.coppersurfer.tk%3A6969&amp;tr=udp%3A%2F%2Fexodus.desync.com%3A6969","seeders":6,"leechers":3,"uploader":".BONE.","files":2,"time":1402934805,"description":"\nRuntime ..........: 1h 43mn\nFile Size ........: 979 MiB\nResolution .......: 704 x 480 &lt;a href=&quot;\nhttp://www.imdb.com/title/tt0780607/&quot; rel=&quot;nofollow&quot; target=&quot;_NEW&quot;&gt;\nhttp://www.imdb.com/title/tt0780607/&lt;/a&gt;\nGenre ............: Horror,Sci-Fi,Thriller\nLanguage .........: English\nSubtitles ........: None\nComplete name : The Signal 2007 DVDRip Xvid AC3 LKRGTSignal_LKRG.avi\nFormat : AVI\nFormat/Info : Audio Video Interleave\nFile size : 979 MiB\nDuration : 1h 43mn\nOverall bit rate : 1 324 Kbps\nWriting application : VirtualDubMod 1.5.10.2 (build 2540/release)\nWriting library : VirtualDubMod build 2540/release\nVideo\nID : 0\nFormat : MPEG-4 Visual\nFormat profile : Advanced Simple@L5\nFormat settings, BVOP : 2\nFormat settings, QPel : No\nFormat settings, GMC : No warppoints\nFormat settings, Matrix : Default (H.263)\nMuxing mode : Packed bitstream\nCodec ID : XVID\nCodec ID/Hint : XviD\nDuration : 1h 43mn\nBit rate : 866 Kbps\nWidth : 704 pixels\nHeight : 480 pixels\nDisplay aspect ratio : 16:9\nFrame rate : 23.976 fps\nStandard : NTSC\nColor space : YUV\nChroma subsampling : 4:2:0\nBit depth : 8 bits\nScan type : Progressive\nCompression mode : Lossy\nBits/(Pixel*Frame) : 0.107\nStream size : 641 MiB (65%)\nWriting library : XviD 1.2.1 (UTC 2008-12-04)\nAudio\nID : 1\nFormat : AC-3\nFormat/Info : Audio Coding 3\nMode extension : CM (complete main)\nFormat settings, Endianness : Big\nCodec ID : 2000\nDuration : 1h 43mn\nBit rate mode : Constant\nBit rate : 448 Kbps\nChannel(s) : 6 channels\nChannel positions : Front: L C R, Side: L R, LFE\nSampling rate : 48.0 KHz\nBit depth : 16 bits\nCompression mode : Lossy\nStream size : 331 MiB (34%)\nAlignment : Split accross interleaves\nInterleave, duration : 42 ms (1.00 video frame)\nInterleave, preload duration : 500 ms","torrent":{"xt":"urn:btih:cd6c8884cc1fe3cd80fee4a80016b48ade1b81dd","amp;dn":"The+Signal+2007+DVDRip+Xvid+AC3+LKRG","amp;tr":["udp%3A%2F%2Ftracker.openbittorrent.com%3A80","udp%3A%2F%2Fopen.demonii.com%3A1337","udp%3A%2F%2Ftracker.coppersurfer.tk%3A6969","udp%3A%2F%2Fexodus.desync.com%3A6969"],"infoHash":"cd6c8884cc1fe3cd80fee4a80016b48ade1b81dd","infoHashBuffer":{"type":"Buffer","data":[205,108,136,132,204,31,227,205,128,254,228,168,0,22,180,138,222,27,129,221]},"announce":[],"urlList":[]}}